<svg width="220" height="120" viewBox="0 0 220 120" fill="none" xmlns="http://www.w3.org/2000/svg">
<path fill-rule="evenodd" clip-rule="evenodd" d="M171 36H49V84H171V36ZM45 32V88H175V32H45Z" fill="#2421CF"/>
<path d="M71.951 68.3199C75.211 68.3199 78.071 66.3999 78.471 62.6399H75.771C75.451 64.8799 73.771 65.9599 71.951 65.9599C69.411 65.9599 67.871 64.0799 67.871 60.8799C67.871 57.6999 69.411 55.7999 71.951 55.7999C73.691 55.7999 75.171 56.6599 75.671 58.6599H78.411C77.791 55.1399 75.111 53.4399 71.951 53.4399C67.831 53.4399 65.051 56.2799 65.051 60.8799C65.051 65.4799 67.891 68.3199 71.951 68.3199Z" fill="#2421CF"/>
<path d="M86.2632 68.3199C90.5232 68.3199 93.3632 65.3599 93.3632 60.8799C93.3632 56.3999 90.5232 53.4399 86.2632 53.4399C81.9832 53.4399 79.1432 56.3999 79.1432 60.8799C79.1432 65.3599 81.9832 68.3199 86.2632 68.3199ZM86.2632 65.9399C83.6632 65.9399 81.9632 64.0199 81.9632 60.8799C81.9632 57.7399 83.6632 55.8199 86.2632 55.8199C88.8632 55.8199 90.5632 57.7399 90.5632 60.8799C90.5632 64.0199 88.8632 65.9399 86.2632 65.9399Z" fill="#2421CF"/>
<path d="M104.115 53.7599V57.4799C104.115 59.5799 104.135 61.8599 104.195 64.3799C103.475 63.0399 102.475 61.3999 101.675 60.0999L97.6948 53.7599H94.6948V67.9999H97.2948V64.2799C97.2948 62.1799 97.2948 59.8999 97.2148 57.3799C97.9348 58.7599 98.8548 60.2399 99.7548 61.6599L103.715 67.9999H106.715V53.7599H104.115Z" fill="#2421CF"/>
<path d="M119.533 53.7599H107.693V56.1799H112.253V67.9999H114.973V56.1799H119.533V53.7599Z" fill="#2421CF"/>
<path d="M128.392 67.9999H131.252L125.732 53.7599H122.572L117.152 67.9999H119.932L121.032 64.8599H127.272L128.392 67.9999ZM121.852 62.5599L122.392 61.0199C122.872 59.7199 123.552 57.8199 124.132 56.1399C124.712 57.8199 125.392 59.7199 125.892 61.0199L126.452 62.5599H121.852Z" fill="#2421CF"/>
<path d="M137.431 68.3199C140.691 68.3199 143.551 66.3999 143.951 62.6399H141.251C140.931 64.8799 139.251 65.9599 137.431 65.9599C134.891 65.9599 133.351 64.0799 133.351 60.8799C133.351 57.6999 134.891 55.7999 137.431 55.7999C139.171 55.7999 140.651 56.6599 141.151 58.6599H143.891C143.271 55.1399 140.591 53.4399 137.431 53.4399C133.311 53.4399 130.531 56.2799 130.531 60.8799C130.531 65.4799 133.371 68.3199 137.431 68.3199Z" fill="#2421CF"/>
<path d="M155.189 53.7599H143.349V56.1799H147.909V67.9999H150.629V56.1799H155.189V53.7599Z" fill="#2421CF"/>
</svg>
