<svg width="220" height="120" viewBox="0 0 220 120" fill="none" xmlns="http://www.w3.org/2000/svg">
<path fill-rule="evenodd" clip-rule="evenodd" d="M155.014 78.5717C166.689 73.2649 172 66.7512 172 61C172 55.2488 166.689 48.7351 155.014 43.4283C143.7 38.2855 127.789 35 110 35C92.2112 35 76.3001 38.2855 64.9862 43.4283C53.3111 48.7351 48 55.2488 48 61C48 66.7512 53.3111 73.2649 64.9862 78.5717C76.3001 83.7145 92.2112 87 110 87C127.789 87 143.7 83.7145 155.014 78.5717ZM110 91C146.451 91 176 77.5685 176 61C176 44.4315 146.451 31 110 31C73.5492 31 44 44.4315 44 61C44 77.5685 73.5492 91 110 91Z" fill="#2421CF"/>
<path d="M70.6382 68.3199C74.1982 68.3199 76.3982 66.7599 76.3982 63.9399C76.3982 61.6799 75.0382 60.3799 71.6782 59.7199L70.4382 59.4799C68.3182 59.0399 67.6582 58.5199 67.6582 57.3799C67.6582 56.2999 68.4982 55.6199 70.2182 55.6199C72.4782 55.6199 73.2582 56.4799 73.3582 57.9999H75.9782C75.8782 55.3199 74.1782 53.4399 70.1782 53.4399C66.7582 53.4399 64.8982 55.0999 64.8982 57.4599C64.8982 60.0399 66.7182 61.2599 69.4782 61.7799L70.6782 62.0199C72.8582 62.4599 73.5982 62.9599 73.5982 64.0799C73.5982 65.4199 72.5782 66.1399 70.7182 66.1399C68.7382 66.1399 67.2382 65.5399 67.1982 63.2999H64.5382C64.5582 66.5799 66.8382 68.3199 70.6382 68.3199Z" fill="#2421CF"/>
<path d="M88.0526 56.1799V53.7599H77.5526V67.9999H88.0126V65.5799H80.2526V61.8599H87.3126V59.5399H80.2526V56.1799H88.0526Z" fill="#2421CF"/>
<path d="M100.601 66.3399L100.481 64.2199C100.421 62.7399 100.001 61.6799 98.4206 61.1799C99.9606 60.6399 100.801 59.4199 100.801 57.7799C100.801 55.3799 99.0606 53.7599 95.7806 53.7599H89.3206V67.9999H92.0206V62.4199H95.5406C96.9806 62.4199 97.7406 62.9199 97.8206 64.7399L97.8806 66.2999C97.9006 66.9999 98.0006 67.5799 98.2606 67.9999H101.041C100.761 67.5799 100.621 66.9599 100.601 66.3399ZM92.0206 60.2999V55.9799H95.5206C97.0806 55.9799 98.0206 56.6799 98.0206 58.0799C98.0206 59.5399 97.0806 60.2999 95.6206 60.2999H92.0206Z" fill="#2421CF"/>
<path d="M111.334 53.7599L108.814 61.1199C108.354 62.5199 107.874 64.0399 107.474 65.5599C107.054 64.0399 106.574 62.5199 106.114 61.1199L103.534 53.7599H100.654L105.874 67.9999H109.034L114.134 53.7599H111.334Z" fill="#2421CF"/>
<path d="M114.888 67.9999H117.588V53.7599H114.888V67.9999Z" fill="#2421CF"/>
<path d="M125.827 68.3199C129.087 68.3199 131.947 66.3999 132.347 62.6399H129.647C129.327 64.8799 127.647 65.9599 125.827 65.9599C123.287 65.9599 121.747 64.0799 121.747 60.8799C121.747 57.6999 123.287 55.7999 125.827 55.7999C127.567 55.7999 129.047 56.6599 129.547 58.6599H132.287C131.667 55.1399 128.987 53.4399 125.827 53.4399C121.707 53.4399 118.927 56.2799 118.927 60.8799C118.927 65.4799 121.767 68.3199 125.827 68.3199Z" fill="#2421CF"/>
<path d="M144.119 56.1799V53.7599H133.619V67.9999H144.079V65.5799H136.319V61.8599H143.379V59.5399H136.319V56.1799H144.119Z" fill="#2421CF"/>
<path d="M150.787 68.3199C154.347 68.3199 156.547 66.7599 156.547 63.9399C156.547 61.6799 155.187 60.3799 151.827 59.7199L150.587 59.4799C148.467 59.0399 147.807 58.5199 147.807 57.3799C147.807 56.2999 148.647 55.6199 150.367 55.6199C152.627 55.6199 153.407 56.4799 153.507 57.9999H156.127C156.027 55.3199 154.327 53.4399 150.327 53.4399C146.907 53.4399 145.047 55.0999 145.047 57.4599C145.047 60.0399 146.867 61.2599 149.627 61.7799L150.827 62.0199C153.007 62.4599 153.747 62.9599 153.747 64.0799C153.747 65.4199 152.727 66.1399 150.867 66.1399C148.887 66.1399 147.387 65.5399 147.347 63.2999H144.687C144.707 66.5799 146.987 68.3199 150.787 68.3199Z" fill="#2421CF"/>
</svg>
