<svg width="220" height="120" viewBox="0 0 220 120" fill="none" xmlns="http://www.w3.org/2000/svg">
<path fill-rule="evenodd" clip-rule="evenodd" d="M109.942 24.2915L42.7289 82.5H177.156L109.942 24.2915ZM109.942 19L32 86.5H187.885L109.942 19Z" fill="#2421CF"/>
<path d="M86.6003 53.7598H74.7603V56.1798H79.3203V67.9998H82.0403V56.1798H86.6003V53.7598Z" fill="#2421CF"/>
<path d="M95.4588 67.9998H98.3188L92.7988 53.7598H89.6388L84.2188 67.9998H86.9988L88.0988 64.8598H94.3388L95.4588 67.9998ZM88.9188 62.5598L89.4588 61.0198C89.9388 59.7198 90.6188 57.8198 91.1988 56.1398C91.7788 57.8198 92.4588 59.7198 92.9588 61.0198L93.5188 62.5598H88.9188Z" fill="#2421CF"/>
<path d="M101.66 65.5798V53.7598H98.9604V67.9998H108.44V65.5798H101.66Z" fill="#2421CF"/>
<path d="M120.017 56.1798V53.7598H109.517V67.9998H119.977V65.5798H112.217V61.8598H119.277V59.5398H112.217V56.1798H120.017Z" fill="#2421CF"/>
<path d="M130.705 53.7598V57.4798C130.705 59.5798 130.725 61.8598 130.785 64.3798C130.065 63.0398 129.065 61.3998 128.265 60.0998L124.285 53.7598H121.285V67.9998H123.885V64.2798C123.885 62.1798 123.885 59.8998 123.805 57.3798C124.525 58.7598 125.445 60.2398 126.345 61.6598L130.305 67.9998H133.305V53.7598H130.705Z" fill="#2421CF"/>
<path d="M146.124 53.7598H134.284V56.1798H138.844V67.9998H141.564V56.1798H146.124V53.7598Z" fill="#2421CF"/>
</svg>
